<svg width="96" height="96" viewBox="0 0 96 96" fill="none" xmlns="http://www.w3.org/2000/svg">
  <rect x="9" y="10" width="78" height="78" rx="30" fill="#FFF2C8"/>
  <path d="M20 50c0-20 12-33 28-33s28 13 28 33c0 18-12 31-28 31S20 68 20 50Z" fill="#9CB593"/>
  <path d="M30 50c0-14 8-24 18-24s18 10 18 24c0 13-8 22-18 22s-18-9-18-22Z" fill="#FFF8EA"/>
  <path d="M35 46c2-7 7-11 13-12l2 8c-5 1-8 4-10 9l-5-5Z" fill="#6F8D69"/>
  <path d="M61 46c-2-7-7-11-13-12l-2 8c5 1 8 4 10 9l5-5Z" fill="#6F8D69"/>
  <circle cx="41" cy="49" r="3.6" fill="#2B332C"/>
  <circle cx="55" cy="49" r="3.6" fill="#2B332C"/>
  <circle cx="35" cy="56" r="4" fill="#FFB39C" opacity=".75"/>
  <circle cx="61" cy="56" r="4" fill="#FFB39C" opacity=".75"/>
  <path d="M44 59c2.5 2.4 5.5 2.4 8 0" stroke="#2B332C" stroke-width="3" stroke-linecap="round"/>
  <path d="M28 32c-6-1-10 2-12 8" stroke="#6F8D69" stroke-width="6" stroke-linecap="round"/>
  <path d="M68 32c6-1 10 2 12 8" stroke="#6F8D69" stroke-width="6" stroke-linecap="round"/>
  <path d="M69 20c5 1 8 4 9 9-5 1-9-1-11-5-1-2 0-3 2-4Z" fill="#7FC982"/>
</svg>
